<svg xmlns="http://www.w3.org/2000/svg" width="109" height="40" viewBox="0 0 109 40">
    <path fill="#231C13" fill-rule="evenodd" d="M16.153 13.765V1.723A1.245 1.245 0 0 1 17.43.453h6.223a1.245 1.245 0 0 1 1.27 1.27v24.055c0 8.2-4.673 12.584-9.808 13.917-1.62.403-2.372.115-2.833-.982l-1.667-4.215c-.462-1.213.347-1.733.925-1.963 2.367-.925 4.618-2.542 4.618-6.063v-2.087c-1.525 1-3.455 1.803-5.778 1.803-7.79 0-10.213-4.94-10.213-12.5V1.723A1.233 1.233 0 0 1 1.378.453H7.66a1.245 1.245 0 0 1 1.268 1.27v11.589c0 3.003.869 4.62 3.584 4.62 2.601 0 3.641-1.795 3.641-4.167zm36.364-11.91v11.992c0 8.405-4.76 12.333-12.317 12.333s-12.315-3.928-12.315-12.357V1.855A1.365 1.365 0 0 1 29.227.45h6.021a1.377 1.377 0 0 1 1.405 1.405V13.78c0 2.7 1.422 4.147 3.549 4.147 2.126 0 3.545-1.447 3.545-4.147V1.855A1.36 1.36 0 0 1 45.08.45h6.032a1.377 1.377 0 0 1 1.405 1.405zm2.616 22.465l-.001-11.987C55.132 3.927 59.892 0 67.448 0c7.557 0 12.314 3.927 12.314 12.355V24.32a1.363 1.363 0 0 1-1.334 1.405H72.4a1.377 1.377 0 0 1-1.405-1.405V12.398c0-2.7-1.418-4.146-3.547-4.146-2.128 0-3.546 1.446-3.546 4.146V24.32a1.358 1.358 0 0 1-1.334 1.405h-6.03a1.377 1.377 0 0 1-1.405-1.405zm46.315-12.222H89.125c0 3.88 2.598 6.684 6.167 6.684 3.568 0 6.156-2.804 6.156-6.684zM95.292 0c7.796 0 13.538 5.538 13.538 13.087 0 7.548-5.74 13.088-13.538 13.088-7.799 0-13.54-5.542-13.54-13.088C81.752 5.54 87.493 0 95.292 0z"/>
</svg>
